HIERARCHY
ROOT hip
{
  OFFSET 0 0 0
  CHANNELS 6 Xposition Yposition Zposition Zrotation Yrotation Xrotation
  JOINT abdomen
  {
    OFFSET 0 20.6881 -0.73152
    CHANNELS 3 Zrotation Xrotation Yrotation
    JOINT chest
    {
      OFFSET 0 11.7043 -0.48768
      CHANNELS 3 Zrotation Xrotation Yrotation
      JOINT neck
      {
        OFFSET 0 22.1894 -2.19456
        CHANNELS 3 Zrotation Xrotation Yrotation
        JOINT head
        {
          OFFSET -0.24384 7.07133 1.2192
          CHANNELS 3 Zrotation Xrotation Yrotation
          JOINT leftEye
          {
            OFFSET 4.14528 8.04674 8.04672
            CHANNELS 3 Zrotation Xrotation Yrotation
            End Site
            {
              OFFSET 1 0 0
            }
          }
          JOINT rightEye
          {
            OFFSET -3.6576 8.04674 8.04672
            CHANNELS 3 Zrotation Xrotation Yrotation
            End Site
            {
              OFFSET 1 0 0
            }
          }
        }
      }
      JOINT rCollar
      {
        OFFSET -2.68224 19.2634 -4.8768
        CHANNELS 3 Zrotation Xrotation Yrotation
        JOINT rShldr
        {
          OFFSET -8.77824 -1.95073 1.46304
          CHANNELS 3 Zrotation Xrotation Yrotation
          JOINT rForeArm
          {
            OFFSET -28.1742 -1.7115 0.48768
            CHANNELS 3 Zrotation Xrotation Yrotation
            JOINT rHand
            {
              OFFSET -22.5879 0.773209 7.07136
              CHANNELS 3 Zrotation Xrotation Yrotation
              JOINT rThumb1
              {
                OFFSET -1.2192 -0.487915 3.41376
                CHANNELS 3 Zrotation Xrotation Yrotation
                JOINT rThumb2
                {
                  OFFSET -3.37035 -0.52449 3.41376
                  CHANNELS 3 Zrotation Xrotation Yrotation
                  End Site
                  {
                    OFFSET -1.78271 -1.18214 1.43049
                  }
                }
              }
              JOINT rIndex1
              {
                OFFSET -7.75947 0.938293 5.60832
                CHANNELS 3 Zrotation Xrotation Yrotation
                JOINT rIndex2
                {
                  OFFSET -2.54057 -0.884171 1.56538
                  CHANNELS 3 Zrotation Xrotation Yrotation
                  End Site
                  {
                    OFFSET -1.62519 -0.234802 1.16502
                  }
                }
              }
              JOINT rMid1
              {
                OFFSET -8.24714 1.18213 3.41376
                CHANNELS 3 Zrotation Xrotation Yrotation
                JOINT rMid2
                {
                  OFFSET -3.10165 -0.590103 1.0647
                  CHANNELS 3 Zrotation Xrotation Yrotation
                  End Site
                  {
                    OFFSET -2.48547 -0.328903 0.83742
                  }
                }
              }
              JOINT rRing1
              {
                OFFSET -8.82822 0.546677 1.51678
                CHANNELS 3 Zrotation Xrotation Yrotation
                JOINT rRing2
                {
                  OFFSET -2.60934 -0.819778 -0.0198488
                  CHANNELS 3 Zrotation Xrotation Yrotation
                  End Site
                  {
                    OFFSET -2.33842 -0.294052 0.168128
                  }
                }
              }
              JOINT rPinky1
              {
                OFFSET -8.27202 -0.0477905 -0.4584
                CHANNELS 3 Zrotation Xrotation Yrotation
                JOINT rPinky2
                {
                  OFFSET -1.82734 -0.647385 -0.700984
                  CHANNELS 3 Zrotation Xrotation Yrotation
                  End Site
                  {
                    OFFSET -1.69225 -0.51767 -0.607171
                  }
                }
              }
            }
          }
        }
      }
      JOINT lCollar
      {
        OFFSET 2.68224 19.2634 -4.8768
        CHANNELS 3 Zrotation Xrotation Yrotation
        JOINT lShldr
        {
          OFFSET 8.77824 -1.95073 1.46304
          CHANNELS 3 Zrotation Xrotation Yrotation
          JOINT lForeArm
          {
            OFFSET 28.1742 -1.7115 0.48768
            CHANNELS 3 Zrotation Xrotation Yrotation
            JOINT lHand
            {
              OFFSET 22.5879 0.773209 7.07136
              CHANNELS 3 Zrotation Xrotation Yrotation
              JOINT lThumb1
              {
                OFFSET 1.2192 -0.487915 3.41376
                CHANNELS 3 Zrotation Xrotation Yrotation
                JOINT lThumb2
                {
                  OFFSET 3.37035 -0.52449 3.41376
                  CHANNELS 3 Zrotation Xrotation Yrotation
                  End Site
                  {
                    OFFSET 1.78271 -1.18214 1.43049
                  }
                }
              }
              JOINT lIndex1
              {
                OFFSET 7.75947 0.938293 5.60832
                CHANNELS 3 Zrotation Xrotation Yrotation
                JOINT lIndex2
                {
                  OFFSET 2.54057 -0.884171 1.56538
                  CHANNELS 3 Zrotation Xrotation Yrotation
                  End Site
                  {
                    OFFSET 1.62519 -0.234802 1.16502
                  }
                }
              }
              JOINT lMid1
              {
                OFFSET 8.24714 1.18213 3.41376
                CHANNELS 3 Zrotation Xrotation Yrotation
                JOINT lMid2
                {
                  OFFSET 3.10165 -0.590103 1.0647
                  CHANNELS 3 Zrotation Xrotation Yrotation
                  End Site
                  {
                    OFFSET 2.48547 -0.328903 0.83742
                  }
                }
              }
              JOINT lRing1
              {
                OFFSET 8.82822 0.546677 1.51678
                CHANNELS 3 Zrotation Xrotation Yrotation
                JOINT lRing2
                {
                  OFFSET 2.60934 -0.819778 -0.0198488
                  CHANNELS 3 Zrotation Xrotation Yrotation
                  End Site
                  {
                    OFFSET 2.33842 -0.294052 0.168128
                  }
                }
              }
              JOINT lPinky1
              {
                OFFSET 8.27202 -0.0477905 -0.4584
                CHANNELS 3 Zrotation Xrotation Yrotation
                JOINT lPinky2
                {
                  OFFSET 1.82734 -0.647385 -0.700984
                  CHANNELS 3 Zrotation Xrotation Yrotation
                  End Site
                  {
                    OFFSET 1.69225 -0.51767 -0.607171
                  }
                }
              }
            }
          }
        }
      }
    }
  }
  JOINT rButtock
  {
    OFFSET -8.77824 4.35084 1.2192
    CHANNELS 3 Zrotation Xrotation Yrotation
    JOINT rThigh
    {
      OFFSET 0 -1.70687 -2.19456
      CHANNELS 3 Zrotation Xrotation Yrotation
      JOINT rShin
      {
        OFFSET 0 -36.8199 0.73152
        CHANNELS 3 Zrotation Xrotation Yrotation
        JOINT rFoot
        {
          OFFSET 0.73152 -45.1104 -5.12064
          CHANNELS 3 Zrotation Xrotation Yrotation
          End Site
          {
            OFFSET -1.1221 -3.69964 12.103
          }
        }
      }
    }
  }
  JOINT lButtock
  {
    OFFSET 8.77824 4.35084 1.2192
    CHANNELS 3 Zrotation Xrotation Yrotation
    JOINT lThigh
    {
      OFFSET 0 -1.70687 -2.19456
      CHANNELS 3 Zrotation Xrotation Yrotation
      JOINT lShin
      {
        OFFSET 0 -36.8199 0.73152
        CHANNELS 3 Zrotation Xrotation Yrotation
        JOINT lFoot
        {
          OFFSET -0.73152 -45.1104 -5.12064
          CHANNELS 3 Zrotation Xrotation Yrotation
          End Site
          {
            OFFSET 1.1221 -3.69964 12.103
          }
        }
      }
    }
  }
}
MOTION
Frames:	6
Frame Time:	0.03333
0.0 0.0 0.0 0.0 0.0 0.0 0.0 0.0 0.0 0.0 0.0 0.0 0.0 0.0 0.0 0.0 0.0 0.0 0.0 0.0 0.0 0.0 0.0 0.0 0.0 0.0 0.0 0.0 0.0 0.0 0.0 0.0 0.0 0.0 0.0 0.0 0.0 0.0 0.0 0.0 0.0 0.0 0.0 0.0 0.0 0.0 0.0 0.0 0.0 0.0 0.0 0.0 0.0 0.0 0.0 0.0 0.0 0.0 0.0 0.0 0.0 0.0 0.0 0.0 0.0 0.0 0.0 0.0 0.0 0.0 0.0 0.0 0.0 0.0 0.0 0.0 0.0 0.0 0.0 0.0 0.0 0.0 0.0 0.0 0.0 0.0 0.0 0.0 0.0 0.0 0.0 0.0 0.0 0.0 0.0 0.0 0.0 0.0 0.0 0.0 0.0 0.0 0.0 0.0 0.0 0.0 0.0 0.0 0.0 0.0 0.0 0.0 0.0 0.0 0.0 0.0 0.0 0.0 0.0 0.0 0.0 0.0 0.0 0.0 0.0 0.0 0.0 0.0 0.0 0.0 0.0 0.0
-33.2203 81.7091 -43.0925 -3.942785 1.661023 3.907775 0.311168 -0.504861 -148.352087 0.381365 2.8544 152.081202 -12.834517 25.204405 -101.729689 25.137571 18.839492 88.023354 0.002242 -0.0 -0.000786 0.002242 -0.0 -0.000786 -49.453281 -86.457988 -71.124813 10.043387 12.612014 -55.648195 -123.803527 19.364006 148.370152 21.064492 -42.063517 12.590621 22.658865 -22.011548 0.966734 11.604498 -51.618887 -30.131661 -19.170257 24.114819 13.380395 -10.145948 23.597792 6.541769 3.451674 -10.534548 -1.681462 2.636629 1.645423 0.201282 -72.757941 -72.14382 -89.771934 -58.361603 -82.271554 -84.267197 -11.663751 -23.131155 -11.068483 -85.761941 -53.660183 -85.72259 0.272918 1.606781 -0.361366 120.169246 -81.575486 -154.312629 -157.067441 -85.858699 -95.101102 -150.478122 -41.204679 -136.411052 -176.506827 -20.69553 -88.629222 77.501311 11.41107 -23.556116 140.762881 1.38054 -116.229194 173.514672 -34.485326 -117.212718 160.672949 -6.667255 -143.247517 -86.518866 -77.972176 -57.7932 145.121128 0.227026 179.198686 -11.438013 18.189633 6.889742 152.506315 38.523398 147.796223 157.835397 42.458168 146.621882 -0.000155 -0.000697 0.000199 -2.037811 -24.596284 -0.885301 -12.387827 55.457497 -126.352864 41.33125 -13.23096 135.204701 179.996588 75.750339 0.002335 -167.811116 49.820842 -9.214768 -0.946468 47.72742 -45.10378 57.651872 31.168402 27.746116
-33.225 81.6725 -43.1055 -3.950682 1.618272 3.859278 1.353022 2.073706 -78.170797 5.062944 -0.948129 81.970208 -12.802116 25.564346 -103.889404 23.79659 19.54381 90.175688 -0.000322 0.0 -0.000311 -0.000322 0.0 -0.000311 4.239027 -44.742813 -8.647366 111.73677 47.277313 -65.798783 175.663566 39.413516 115.96776 164.804222 -24.20963 143.053648 -103.199338 36.331255 60.111623 172.625093 -40.429244 75.119371 -151.351972 -17.1586 121.133482 95.744983 -70.678628 42.633653 -82.840317 61.112064 74.532303 27.499964 -57.483155 5.089574 0.004523 0.917764 0.288443 -152.235647 28.310562 167.393512 1.133984 3.040501 1.044998 -94.66535 -51.956108 -93.962715 28.385113 -85.1993 49.679834 -80.335316 29.060247 76.704695 -14.458462 -8.509446 -25.597915 17.108612 60.304833 -9.381744 161.434062 0.861249 -89.127025 -40.63269 -61.16982 -33.917536 140.163506 2.326698 -115.879105 -45.081024 -55.084212 -1.685581 125.643216 49.839602 -115.273819 -2.836443 1.667471 -0.474406 145.100102 -1.521139 178.650227 -10.385457 0.370188 8.94777 150.578678 31.034029 146.362961 53.872942 -51.643697 53.773139 -0.000237 0.000801 0.000304 -2.011397 -24.587274 -0.873533 4.552027 53.510461 119.665088 -101.203992 -28.205036 -173.219762 -179.977393 75.748755 -0.015468 -167.841911 49.821756 -9.191319 -2.892716 57.256176 -136.539535 -34.938416 46.863634 159.786029
-33.231100000000005 81.6357 -43.0975 -3.92956 1.485355 3.749997 -1.097307 4.134252 0.0 2.484615 -7.009953 3.976876 7.20974 24.061203 116.38837 -20.499518 17.126204 -127.191667 0.001119 0.0 0.001592 0.001119 0.0 0.001592 3.206735 -26.010414 -5.104683 85.247302 37.900465 -32.323759 157.169973 9.858539 119.619292 173.422943 -0.051833 146.895726 -173.976492 -11.643259 89.88239 -138.254386 10.908505 70.116283 37.215341 -57.917961 -0.643494 -61.887046 51.906825 51.185733 -125.643237 49.839252 115.273176 10.116569 -20.311323 -1.259486 -69.298001 72.946162 87.01733 -159.504172 -15.007585 178.117039 -1.202232 -3.047654 -1.116735 -159.452635 55.564301 -150.082782 -4.233679 -44.500005 8.599094 -91.87831 32.183759 41.685774 6.445408 -12.576448 -21.049723 3.02806 30.226989 -3.354395 -114.539733 -50.246114 -55.721186 64.714991 28.213011 -19.474523 -12.216786 -21.78461 5.120954 85.188968 47.754136 -68.772488 36.035851 51.723769 -29.830687 -29.663413 -60.159356 -6.558467 145.118722 0.18511 179.18718 156.267293 63.710833 -172.347305 -12.989644 44.344257 -10.759431 9.541078 -23.739065 10.359639 -0.0 -0.00146 -0.000189 -2.100509 -26.882937 177.662286 -2.326887 -50.304444 -109.767903 -32.486655 40.187302 -60.282442 179.999961 75.749398 4e-05 -168.097635 47.650913 180.0 -7.214414 -52.504613 93.793195 171.355501 -12.189639 -95.390358
-33.2307 81.5831 -43.091499999999996 -3.911634 1.433127 3.67798 0.088522 -0.141383 -147.948678 0.374346 2.844266 151.654552 -8.399097 30.082806 -139.62795 14.496585 29.651682 125.439612 -0.001785 0.0 -0.000364 -0.001785 0.0 -0.000364 -158.89766 -36.946402 168.196962 -42.164671 23.662717 -19.327899 49.803764 -5.388728 -39.652424 -176.941594 29.879751 146.776137 -93.743751 37.962754 53.548228 -18.054283 -11.211981 31.09096 -13.871407 18.8151 9.290296 5.86954 4.867175 0.079476 -165.290123 -21.385398 144.900577 -0.923062 11.250427 2.262879 -72.133197 72.974838 89.989563 -158.704267 -27.873675 -179.899041 19.279634 66.825623 13.09497 -141.925045 -6.249321 -137.762099 -2.460309 -18.216354 3.668705 11.274752 -74.749891 92.68895 -105.233361 -85.481208 -43.231281 -153.125549 -37.752978 -138.6071 169.319628 -7.000949 -89.921524 -25.691311 -62.69283 -22.879979 46.208645 39.652981 -36.318103 -50.207276 -51.182809 -10.826672 145.288255 29.524432 -132.692437 -30.004737 -60.066173 -7.005059 69.298564 72.946949 -87.016774 159.835136 -0.819555 -176.281628 124.8508 -29.038765 122.622006 -71.283795 84.335909 32.425522 -179.979921 75.749528 -0.013738 177.746077 48.853501 -157.395793 -28.409813 -46.114492 -125.590527 -171.252763 62.85591 87.437594 0.070082 0.001303 0.052562 8.814602 -27.216199 -170.301209 -6.542194 -59.626099 32.318926 -75.465872 48.525771 -177.83501
-33.2439 81.5124 -43.0835 -3.990068 1.44591 3.599833 1.205908 1.472205 -104.78197 3.87797 1.196147 108.285971 -12.725006 26.45544 -107.923375 23.007178 20.83481 94.020347 0.000866 -0.0 -0.001645 0.000866 -0.0 -0.001645 -157.642816 -66.710494 175.898538 173.776529 -19.464851 -134.071058 141.54859 87.972949 153.515659 162.577259 -29.239445 141.605139 -171.653421 -9.336293 89.949475 174.180903 -21.577149 96.289421 159.643675 -69.97392 102.397177 19.967092 -7.521057 -8.519069 -82.840441 61.109799 74.532466 -161.969138 -1.455755 142.789747 -0.015175 -1.323284 -0.415008 11.6773 -36.411207 -4.393474 -4.660643 -10.866306 -4.364748 -147.031937 11.386772 -143.607282 59.832009 -86.721382 81.632681 -79.300853 29.39349 78.420831 -0.890801 7.827525 -24.720378 6.905616 41.436998 -4.112208 0.493038 0.484056 -0.077703 -1.43743 -1.680759 0.842844 140.763688 1.38083 -116.229254 81.254282 56.948491 -61.624175 -23.904762 -61.333654 -1.400647 170.322238 -25.692287 -144.187327 0.000183 0.063874 -0.020282 78.281842 78.78032 -91.692643 -16.822102 58.945938 -12.650097 138.813477 -13.190462 135.193549 -0.00187 4e-05 -0.000935 -1.987203 -24.662418 -0.865367 -14.592547 48.773912 -56.670743 -108.628826 -70.211519 -12.897706 -0.000668 4e-05 -0.0 8.813611 -25.040743 -0.0 10.464911 51.63672 60.287869 6.991937 -46.042078 -59.218656
